<?xml version="1.0" standalone="no"?>
<!DOCTYPE svg PUBLIC "-//W3C//DTD SVG 20010904//EN"
 "http://www.w3.org/TR/2001/REC-SVG-20010904/DTD/svg10.dtd">
<svg version="1.0" xmlns="http://www.w3.org/2000/svg"
 width="184.000000pt" height="170.000000pt" viewBox="0 0 184.000000 170.000000"
 preserveAspectRatio="xMidYMid meet">

<g transform="translate(0.000000,170.000000) scale(0.100000,-0.100000)"
fill="currentColor" stroke="none">
<path d="M1400 1491 c-48 -17 -71 -36 -175 -144 l-120 -125 -190 19 c-104 10
-297 27 -429 39 l-239 21 -23 -22 c-30 -28 -30 -43 -1 -56 12 -6 154 -72 316
-147 162 -75 296 -138 299 -141 2 -2 -67 -81 -154 -175 l-158 -172 -155 3
c-86 2 -162 0 -169 -5 -31 -19 -9 -43 91 -100 152 -88 158 -93 238 -231 40
-69 78 -125 85 -125 30 0 36 29 33 184 -2 92 1 160 6 165 58 55 331 301 335
301 3 0 71 -143 152 -318 155 -334 161 -344 199 -292 17 24 17 38 -21 445 -22
231 -40 425 -40 430 0 6 52 58 115 115 130 118 165 171 165 251 0 88 -57 116
-160 80z"/>
</g>
</svg>