<svg xmlns="http://www.w3.org/2000/svg" version="1.0" preserveAspectRatio="xMidYMid meet" viewBox="207.7 104.47 216.5 203.07">

<g transform="translate(0.000000,395.000000) scale(0.100000,-0.100000)" stroke="none">
<!-- Círculo y R en celeste #1C77B7 -->
<path fill="#1C77B7" d="M2985 2900 c-27 -5 -77 -13 -110 -18 -33 -5 -96 -24 -140 -41 -76 -30 -96 -40 -176 -85 -47 -26 -166 -125 -214 -177 -52 -57 -108 -129 -100 -129 3 0 -4 -10 -15 -22 -38 -41 -126 -241 -114 -260 3 -4 1 -8 -4 -8 -17 0 -36 -145 -35 -270 0 -177 24 -288 94 -435 31 -64 99 -177 121 -199 7 -7 29 -30 48 -52 77 -85 200 -176 309 -229 228 -111 533 -132 766 -53 50 17 92 33 95 37 3 3 14 8 25 9 31 6 75 32 180 108 107 77 240 217 230 242 -3 7 0 10 5 7 9 -6 14 8 11 28 -1 5 3 6 8 3 12 -8 70 93 73 127 1 14 5 24 9 21 8 -4 36 68 43 111 3 17 10 46 16 65 46 155 25 389 -52 598 -24 66 -34 71 -57 30 -14 -24 -13 -32 12 -95 64 -163 75 -394 26 -568 -47 -166 -146 -332 -266 -445 -32 -30 -57 -58 -55 -63 1 -5 -1 -6 -6 -3 -5 3 -35 -13 -68 -36 -32 -22 -84 -52 -114 -65 -30 -14 -68 -31 -85 -38 -16 -7 -70 -24 -120 -36 -107 -27 -314 -32 -405 -10 -171 41 -288 92 -400 174 -68 51 -180 164 -180 183 0 11 16 14 70 14 l70 0 2 428 3 427 150 0 c165 0 208 -11 248 -66 46 -63 28 -172 -37 -220 -28 -21 -45 -24 -158 -29 l-126 -5 46 -70 c26 -38 69 -105 96 -147 27 -43 53 -78 57 -78 5 0 9 -6 9 -13 0 -7 31 -61 70 -120 l70 -107 130 0 c71 0 130 2 130 6 0 3 -19 33 -42 67 -24 34 -45 66 -48 72 -3 5 -23 36 -45 69 -22 32 -44 66 -50 75 -5 9 -20 30 -32 48 -13 17 -23 35 -23 40 0 4 18 17 40 27 68 33 117 83 152 154 28 58 32 78 33 147 0 71 -4 88 -33 148 -20 41 -38 65 -44 61 -6 -4 -8 -3 -5 3 9 14 -42 63 -90 87 -21 10 -47 23 -58 30 -13 7 -120 12 -325 14 -168 1 -311 5 -319 7 -10 4 -11 8 -1 20 6 8 8 20 4 26 -4 7 -3 9 4 5 6 -3 24 12 40 36 17 24 39 54 51 67 11 13 18 27 15 32 -3 5 1 6 9 3 8 -3 21 3 28 13 24 33 104 92 193 143 151 87 283 120 474 119 70 0 159 -6 197 -13 94 -17 241 -76 323 -129 62 -40 116 -68 99 -51 -4 4 1 13 11 20 16 12 15 15 -8 36 -36 34 -120 79 -133 71 -5 -3 -7 -2 -4 4 12 20 -161 86 -283 109 -99 18 -253 25 -315 14z m-735 -1016 c0 -228 -4 -414 -8 -414 -13 0 -49 87 -77 184 -21 75 -25 109 -25 230 0 91 6 164 16 206 27 117 69 224 84 215 6 -4 10 -164 10 -421z m125 -663 c3 -5 2 -12 -3 -15 -5 -3 -9 1 -9 9 0 17 3 19 12 6z"/>

<!-- V en rojo #E33D35 -->
<path fill="#E33D35" d="M3056 2351 c104 -76 153 -167 161 -297 6 -81 -12 -173 -42 -219 -11 -18 -7 -36 35 -140 26 -66 66 -169 89 -230 23 -60 46 -120 51 -133 10 -22 14 -23 111 -20 l101 3 179 465 c98 256 179 477 179 491 0 15 -14 41 -32 63 -30 34 -38 38 -94 42 l-62 5 -29 -78 c-16 -43 -76 -203 -133 -356 -56 -153 -106 -275 -110 -270 -4 4 -35 87 -69 183 -34 96 -73 205 -87 243 -13 37 -36 100 -50 140 -14 39 -32 87 -39 105 l-15 32 -91 0 -92 0 39 -29z"/>

<!-- Avión nuevo en rojo #1C77B7 - 1.5x más grande que la versión anterior y rotado -15deg -->
<g transform="translate(3800,2250) rotate(15) scale(0.30,0.30)">
<path fill="#1C77B7" d="M1400 1491 c-48 -17 -71 -36 -175 -144 l-120 -125 -190 19 c-104 10 -297 27 -429 39 l-239 21 -23 -22 c-30 -28 -30 -43 -1 -56 12 -6 154 -72 316 -147 162 -75 296 -138 299 -141 2 -2 -67 -81 -154 -175 l-158 -172 -155 3 c-86 2 -162 0 -169 -5 -31 -19 -9 -43 91 -100 152 -88 158 -93 238 -231 40 -69 78 -125 85 -125 30 0 36 29 33 184 -2 92 1 160 6 165 58 55 331 301 335 301 3 0 71 -143 152 -318 155 -334 161 -344 199 -292 17 24 17 38 -21 445 -22 231 -40 425 -40 430 0 6 52 58 115 115 130 118 165 171 165 251 0 88 -57 116 -160 80z"/>
</g>
</g>
</svg>